<?xml version="1.0" standalone="no"?>
<!DOCTYPE svg PUBLIC "-//W3C//DTD SVG 20010904//EN"
 "http://www.w3.org/TR/2001/REC-SVG-20010904/DTD/svg10.dtd">
<svg version="1.0" xmlns="http://www.w3.org/2000/svg"
 width="213.000000pt" height="240.000000pt" viewBox="0 0 213.000000 240.000000"
 preserveAspectRatio="xMidYMid meet">

<g transform="translate(0.000000,240.000000) scale(0.100000,-0.100000)"
fill="#FFFFFF" stroke="none">
<path d="M610 2082 c-58 -15 -145 -43 -193 -62 l-89 -35 -50 -80 c-109 -176
-197 -392 -238 -587 -28 -132 -44 -344 -36 -459 l8 -96 81 -53 c145 -95 419
-219 453 -206 13 5 68 87 98 144 l15 30 -85 41 c-49 23 -84 46 -82 53 11 31
35 30 129 -5 149 -56 280 -79 444 -79 164 0 295 23 444 79 94 35 118 36 129 5
2 -7 -33 -30 -82 -53 l-86 -41 33 -60 c17 -33 44 -74 58 -91 l26 -31 89 33
c118 45 249 111 356 179 l86 56 7 94 c21 276 -50 619 -183 884 -92 183 -128
234 -187 259 -113 49 -317 109 -370 109 -22 0 -30 -9 -51 -55 l-25 -54 -47 7
c-60 9 -333 9 -393 0 l-45 -7 -27 54 c-32 66 -35 66 -187 27z m167 -653 c145
-54 169 -281 41 -383 -68 -54 -182 -44 -240 21 -50 55 -71 161 -47 234 36 107
148 165 246 128z m728 -12 c21 -12 53 -42 70 -65 28 -40 30 -50 30 -127 0 -77
-2 -87 -30 -127 -83 -116 -227 -117 -309 0 -38 54 -48 149 -22 216 41 108 165
157 261 103z"/>
</g>
</svg>
