<?xml version="1.0" standalone="no"?>
<!DOCTYPE svg PUBLIC "-//W3C//DTD SVG 20010904//EN"
 "http://www.w3.org/TR/2001/REC-SVG-20010904/DTD/svg10.dtd">
<svg version="1.0" xmlns="http://www.w3.org/2000/svg"
 width="240.000000pt" height="240.000000pt" viewBox="0 0 240.000000 240.000000"
 preserveAspectRatio="xMidYMid meet">

<g transform="translate(0.000000,240.000000) scale(0.100000,-0.100000)"
fill="#FFFFFF" stroke="none">
<path d="M1828 2393 c-1 -5 -25 -25 -51 -47 l-48 -38 -37 26 c-46 31 -97 34
-150 7 -41 -21 -122 -95 -122 -111 0 -6 -39 -10 -99 -10 -138 0 -180 -10 -348
-86 -252 -113 -297 -131 -408 -163 -201 -58 -374 -31 -496 77 l-46 41 -12 -38
c-7 -26 -11 -171 -11 -455 l0 -416 22 5 c13 3 45 9 71 15 27 6 65 17 84 25 44
19 43 19 43 -4 0 -49 -44 -118 -130 -204 l-90 -90 0 -68 c0 -38 3 -69 8 -69
15 0 59 36 194 158 140 126 227 220 353 378 95 120 306 290 503 406 42 25 141
62 148 55 2 -1 -11 -54 -27 -117 -19 -75 -28 -134 -27 -170 3 -51 5 -55 29
-58 25 -3 26 -6 22 -50 -2 -26 0 -90 4 -142 5 -52 6 -113 3 -137 -6 -39 -4
-45 32 -80 l38 -37 0 -101 c1 -59 6 -112 14 -130 l13 -30 8 35 c11 49 66 213
75 223 4 4 13 -14 20 -40 6 -26 21 -76 32 -111 15 -49 19 -76 13 -119 -10 -78
-11 -80 -54 -80 -77 0 -231 -115 -231 -173 l0 -28 -115 -7 c-157 -10 -352 2
-450 27 -101 27 -178 33 -226 19 -20 -6 -70 -33 -112 -60 -77 -50 -134 -115
-176 -198 l-21 -42 48 -48 c58 -59 136 -102 216 -119 79 -17 1635 -20 1718 -3
63 12 128 38 128 51 0 6 -26 40 -59 76 -32 37 -68 87 -79 112 -11 25 -30 59
-41 76 l-21 31 82 12 c109 17 147 38 251 139 l87 86 -3 725 c-2 457 -7 741
-14 768 -35 140 -149 255 -292 294 -67 19 -256 27 -263 12z m12 -1001 c56 -28
110 -90 124 -142 7 -23 5 -23 -24 8 -17 19 -32 32 -34 30 -1 -1 -10 -29 -19
-60 -27 -88 -100 -135 -170 -109 -49 19 -56 81 -21 199 8 29 -12 29 -49 -1
-18 -14 -33 -40 -42 -72 -13 -48 -13 -49 -14 -15 -1 33 17 113 34 152 5 13 1
20 -16 27 -18 7 3 10 76 10 89 0 106 -3 155 -27z m294 -674 c8 -39 -15 -68
-56 -68 -33 0 -37 15 -7 30 11 7 25 25 31 41 13 38 24 37 32 -3z"/>
</g>
</svg>
